<mxfile host="65bd71144e">
    <diagram id="-55225dTMH6KRCjdtvrq" name="Page-1">
        <mxGraphModel dx="594" dy="561" grid="1" gridSize="10" guides="1" tooltips="1" connect="1" arrows="1" fold="1" page="1" pageScale="1" pageWidth="827" pageHeight="1169" math="0" shadow="0">
            <root>
                <mxCell id="0"/>
                <mxCell id="1" parent="0"/>
                <mxCell id="2" value="volume of sphere" style="swimlane;fillColor=#d80073;fontColor=#ffffff;strokeColor=#A50040;startSize=30;" parent="1" vertex="1">
                    <mxGeometry x="70" y="90" width="460" height="300" as="geometry"/>
                </mxCell>
                <mxCell id="3" value="" style="rounded=0;whiteSpace=wrap;html=1;fillColor=#ffe6cc;strokeColor=#660033;" vertex="1" parent="2">
                    <mxGeometry y="30" width="460" height="270" as="geometry"/>
                </mxCell>
                <mxCell id="8" value="" style="endArrow=none;html=1;fontSize=16;fontColor=#660033;strokeColor=#660033;" edge="1" parent="2">
                    <mxGeometry width="50" height="50" relative="1" as="geometry">
                        <mxPoint x="20" y="200" as="sourcePoint"/>
                        <mxPoint x="100" y="200" as="targetPoint"/>
                    </mxGeometry>
                </mxCell>
                <mxCell id="9" value="" style="ellipse;whiteSpace=wrap;html=1;aspect=fixed;labelBackgroundColor=none;fontSize=16;fontColor=#660033;strokeColor=#660033;fillColor=none;" vertex="1" parent="2">
                    <mxGeometry x="290" y="80" width="120" height="120" as="geometry"/>
                </mxCell>
                <mxCell id="10" value="" style="ellipse;whiteSpace=wrap;html=1;labelBackgroundColor=none;fontSize=16;fontColor=#660033;strokeColor=#660033;fillColor=none;" vertex="1" parent="2">
                    <mxGeometry x="290" y="134" width="120" height="20" as="geometry"/>
                </mxCell>
                <mxCell id="11" value="button" style="rounded=1;whiteSpace=wrap;html=1;labelBackgroundColor=none;fontSize=16;fontColor=#660033;strokeColor=#FFC300;fillColor=#FFE600;" vertex="1" parent="2">
                    <mxGeometry x="20" y="210" width="70" height="30" as="geometry"/>
                </mxCell>
                <mxCell id="12" value="answer" style="text;html=1;strokeColor=none;fillColor=none;align=center;verticalAlign=middle;whiteSpace=wrap;rounded=0;labelBackgroundColor=none;fontSize=16;fontColor=#660033;" vertex="1" parent="2">
                    <mxGeometry x="10" y="250" width="60" height="30" as="geometry"/>
                </mxCell>
                <mxCell id="4" value="&lt;h1&gt;formula&lt;/h1&gt;&lt;font style=&quot;font-size: 20px&quot;&gt;&lt;font style=&quot;font-size: 20px&quot;&gt;&lt;div class=&quot;lr-fy-ecl lr-fy-eq-elem&quot; style=&quot;display: inline-block ; position: relative ; transition: 0.05s ease-in-out 0s ; font-style: italic ; font-family: &amp;#34;stixgeneral&amp;#34; , &amp;#34;georgia&amp;#34; ; margin-right: 10px ; margin-top: 0px ; margin-bottom: 0px&quot;&gt;V&lt;/div&gt;&lt;div class=&quot;lr-fy-eq-elem lr-fy-eq-add&quot; style=&quot;display: inline-block ; position: relative ; transition: 0.05s ease-in-out 0s ; font-family: &amp;#34;stixgeneral&amp;#34; , &amp;#34;georgia&amp;#34; ; margin-left: 0.2em ; margin-right: 0.2em&quot;&gt;=&lt;br&gt;&lt;/div&gt;&lt;/font&gt;&lt;div class=&quot;lr-fy-eq-elem eiuJYe&quot; style=&quot;display: inline-block ; position: relative ; transition: 0.05s ease-in-out 0s ; font-family: &amp;#34;stixgeneral&amp;#34; , &amp;#34;georgia&amp;#34; ; margin-left: 5px ; vertical-align: middle ; margin-top: 0px ; margin-bottom: 0px&quot;&gt;&lt;font style=&quot;font-size: 20px&quot;&gt;&lt;div class=&quot;lr-fy-eq-elem&quot; style=&quot;display: inline-block ; position: relative ; transition: 0.05s ease-in-out 0s&quot;&gt;&lt;div class=&quot;lr-fy-eq-elem&quot; style=&quot;display: inline-block ; position: relative ; transition: 0.05s ease-in-out 0s ; text-align: center ; vertical-align: middle&quot;&gt;&lt;div class=&quot;lr-fy-ecv lr-fy-eq-elem&quot; style=&quot;display: inline-block ; position: relative ; transition: 0.05s ease-in-out 0s ; font-family: &amp;#34;stixgeneral&amp;#34; , &amp;#34;times&amp;#34; , &amp;#34;times new roman&amp;#34; , serif&quot;&gt;4&lt;/div&gt;&lt;div class=&quot;lr-fy-eq-add&quot; style=&quot;width: 14px ; height: 1px ; margin-top: 2px ; margin-bottom: 2px&quot;&gt;&lt;br&gt;&lt;/div&gt;&lt;div class=&quot;lr-fy-ecv lr-fy-eq-elem&quot; style=&quot;display: inline-block ; position: relative ; transition: 0.05s ease-in-out 0s ; font-family: &amp;#34;stixgeneral&amp;#34; , &amp;#34;times&amp;#34; , &amp;#34;times new roman&amp;#34; , serif&quot;&gt;3&lt;/div&gt;&lt;/div&gt;&lt;div class=&quot;lr-fy-eq-elem lr-fy-eq-add&quot; style=&quot;display: inline-block ; position: relative ; transition: 0.05s ease-in-out 0s ; margin-left: 0.2em&quot;&gt;&lt;/div&gt;&lt;div class=&quot;lr-fy-ecl lr-fy-eq-elem&quot; style=&quot;display: inline-block ; position: relative ; transition: 0.05s ease-in-out 0s ; font-style: italic&quot;&gt;Ï€&lt;/div&gt;&lt;/div&gt;&lt;div class=&quot;lr-fy-eq-elem lr-fy-eq-add&quot; style=&quot;display: inline-block ; position: relative ; transition: 0.05s ease-in-out 0s ; margin-left: 0.2em&quot;&gt;&lt;/div&gt;&lt;div class=&quot;lr-fy-eq-elem&quot; style=&quot;display: inline-block ; position: relative ; transition: 0.05s ease-in-out 0s&quot;&gt;&lt;div class=&quot;lr-fy-el lr-fy-eq-elem&quot; style=&quot;display: inline-block ; position: relative ; transition: 0.05s ease-in-out 0s ; margin: -4px ; padding: 4px ; font-style: italic ; cursor: pointer&quot;&gt;r&lt;/div&gt;&lt;div class=&quot;lr-fy-ecv lr-fy-eq-elem&quot; style=&quot;display: inline-block ; position: relative ; transition: 0.05s ease-in-out 0s ; font-family: &amp;#34;stixgeneral&amp;#34; , &amp;#34;times&amp;#34; , &amp;#34;times new roman&amp;#34; , serif ; margin-left: 0.15em ; vertical-align: top&quot;&gt;3&lt;/div&gt;&lt;/div&gt;&lt;/font&gt;&lt;/div&gt;&lt;/font&gt;" style="text;html=1;spacing=5;spacingTop=-20;whiteSpace=wrap;overflow=hidden;rounded=0;fontColor=#660033;" vertex="1" parent="1">
                    <mxGeometry x="80" y="130" width="190" height="120" as="geometry"/>
                </mxCell>
                <mxCell id="5" value="" style="endArrow=none;html=1;fontSize=20;fontColor=#660033;strokeColor=#660033;" edge="1" parent="1">
                    <mxGeometry width="50" height="50" relative="1" as="geometry">
                        <mxPoint x="129" y="207" as="sourcePoint"/>
                        <mxPoint x="149" y="207" as="targetPoint"/>
                    </mxGeometry>
                </mxCell>
                <mxCell id="7" value="radius:" style="text;html=1;strokeColor=none;fillColor=none;align=center;verticalAlign=middle;whiteSpace=wrap;rounded=0;labelBackgroundColor=none;fontSize=16;fontColor=#660033;" vertex="1" parent="1">
                    <mxGeometry x="80" y="250" width="60" height="30" as="geometry"/>
                </mxCell>
            </root>
        </mxGraphModel>
    </diagram>
</mxfile>